<?xml version="1.0" standalone="no"?><!DOCTYPE svg PUBLIC "-//W3C//DTD SVG 1.1//EN" "http://www.w3.org/Graphics/SVG/1.1/DTD/svg11.dtd"><svg t="1615457798920" class="icon" viewBox="0 0 1024 1024" version="1.1" xmlns="http://www.w3.org/2000/svg" p-id="1405" xmlns:xlink="http://www.w3.org/1999/xlink" width="200" height="200"><defs><style type="text/css"></style></defs><path d="M317.8 356.6h388.5c21.4 0 38.8-17.5 38.8-38.8 0-21.4-17.5-38.8-38.8-38.8H317.8c-21.4 0-38.8 17.5-38.8 38.8-0.1 21.3 17.4 38.8 38.8 38.8zM317.8 550.8h388.5c21.4 0 38.8-17.5 38.8-38.8 0-21.4-17.5-38.8-38.8-38.8H317.8c-21.4 0-38.8 17.5-38.8 38.8-0.1 21.4 17.4 38.8 38.8 38.8zM482.9 667.4H327.5c-21.4 0-38.8 17.5-38.8 38.8 0 21.4 17.5 38.8 38.8 38.8h155.4c21.4 0 38.8-17.5 38.8-38.8 0-21.3-17.5-38.8-38.8-38.8z" fill="#1880FF" p-id="1406"></path><path d="M745.1 65.3H278.9c-107.1 0-194.2 87.1-194.2 194.2v505c0 107.1 87.1 194.2 194.2 194.2h448.3l212.1-212.1V259.5c0-107.1-87.1-194.2-194.2-194.2zM162.4 764.5v-505c0-64.3 52.3-116.5 116.5-116.5h466.2c64.3 0 116.5 52.3 116.5 116.5V648H743.5C679.2 648 627 700.3 627 764.5V881H279c-64.4 0.1-116.6-52.2-116.6-116.5z m542.2 106.9V764.5c0-21.4 17.4-38.8 38.8-38.8h106.9L704.6 871.4z" fill="#1880FF" p-id="1407"></path></svg>